<svg width="171" height="1133" viewBox="0 0 171 1133" fill="none" xmlns="http://www.w3.org/2000/svg">
<mask id="mask0" mask-type="alpha" maskUnits="userSpaceOnUse" x="0" y="0" width="563" height="1133">
<path d="M557.5 0L0 551.5L562.5 1133L557.5 0Z" fill="#26282A"/>
</mask>
<g mask="url(#mask0)">
<circle cx="30.5" cy="409" r="4" transform="rotate(-90 30.5 409)" fill="#2C2C2C"/>
<circle cx="30.5" cy="1049" r="4" transform="rotate(-90 30.5 1049)" fill="#2C2C2C"/>
<circle cx="30.5" cy="89" r="4" transform="rotate(-90 30.5 89)" fill="#2C2C2C"/>
<circle cx="30.5" cy="729" r="4" transform="rotate(-90 30.5 729)" fill="#2C2C2C"/>
<circle cx="158.5" cy="409" r="4" transform="rotate(-90 158.5 409)" fill="#2C2C2C"/>
<circle cx="158.5" cy="1049" r="4" transform="rotate(-90 158.5 1049)" fill="#2C2C2C"/>
<circle cx="158.5" cy="89" r="4" transform="rotate(-90 158.5 89)" fill="#2C2C2C"/>
<circle cx="158.5" cy="729" r="4" transform="rotate(-90 158.5 729)" fill="#2C2C2C"/>
<circle cx="62.5" cy="409" r="4" transform="rotate(-90 62.5 409)" fill="#2C2C2C"/>
<circle cx="62.5" cy="1049" r="4" transform="rotate(-90 62.5 1049)" fill="#2C2C2C"/>
<circle cx="62.5" cy="89" r="4" transform="rotate(-90 62.5 89)" fill="#2C2C2C"/>
<circle cx="62.5" cy="729" r="4" transform="rotate(-90 62.5 729)" fill="#2C2C2C"/>
<circle cx="94.5" cy="409" r="4" transform="rotate(-90 94.5 409)" fill="#2C2C2C"/>
<circle cx="94.5" cy="1049" r="4" transform="rotate(-90 94.5 1049)" fill="#2C2C2C"/>
<circle cx="94.5" cy="89" r="4" transform="rotate(-90 94.5 89)" fill="#2C2C2C"/>
<circle cx="94.5" cy="729" r="4" transform="rotate(-90 94.5 729)" fill="#2C2C2C"/>
<circle cx="-1.5" cy="409" r="4" transform="rotate(-90 -1.5 409)" fill="#2C2C2C"/>
<circle cx="-1.5" cy="1049" r="4" transform="rotate(-90 -1.5 1049)" fill="#2C2C2C"/>
<circle cx="-1.5" cy="89" r="4" transform="rotate(-90 -1.5 89)" fill="#2C2C2C"/>
<circle cx="-1.5" cy="729" r="4" transform="rotate(-90 -1.5 729)" fill="#2C2C2C"/>
<circle cx="126.5" cy="409" r="4" transform="rotate(-90 126.5 409)" fill="#2C2C2C"/>
<circle cx="126.5" cy="1049" r="4" transform="rotate(-90 126.5 1049)" fill="#2C2C2C"/>
<circle cx="126.5" cy="89" r="4" transform="rotate(-90 126.5 89)" fill="#2C2C2C"/>
<circle cx="126.5" cy="729" r="4" transform="rotate(-90 126.5 729)" fill="#2C2C2C"/>
<circle cx="158.5" cy="345" r="4" transform="rotate(-90 158.5 345)" fill="#2C2C2C"/>
<circle cx="158.5" cy="985" r="4" transform="rotate(-90 158.5 985)" fill="#2C2C2C"/>
<circle cx="158.5" cy="25" r="4" transform="rotate(-90 158.5 25)" fill="#2C2C2C"/>
<circle cx="158.5" cy="665" r="4" transform="rotate(-90 158.5 665)" fill="#2C2C2C"/>
<circle cx="158.5" cy="249" r="4" transform="rotate(-90 158.5 249)" fill="#2C2C2C"/>
<circle cx="158.5" cy="889" r="4" transform="rotate(-90 158.5 889)" fill="#2C2C2C"/>
<circle cx="158.5" cy="569" r="4" transform="rotate(-90 158.5 569)" fill="#2C2C2C"/>
<circle cx="30.5" cy="345" r="4" transform="rotate(-90 30.5 345)" fill="#2C2C2C"/>
<circle cx="30.5" cy="985" r="4" transform="rotate(-90 30.5 985)" fill="#2C2C2C"/>
<circle cx="30.5" cy="25" r="4" transform="rotate(-90 30.5 25)" fill="#2C2C2C"/>
<circle cx="30.5" cy="665" r="4" transform="rotate(-90 30.5 665)" fill="#2C2C2C"/>
<circle cx="30.5" cy="249" r="4" transform="rotate(-90 30.5 249)" fill="#2C2C2C"/>
<circle cx="30.5" cy="889" r="4" transform="rotate(-90 30.5 889)" fill="#2C2C2C"/>
<circle cx="30.5" cy="569" r="4" transform="rotate(-90 30.5 569)" fill="#2C2C2C"/>
<circle cx="94.5" cy="345" r="4" transform="rotate(-90 94.5 345)" fill="#2C2C2C"/>
<circle cx="94.5" cy="985" r="4" transform="rotate(-90 94.5 985)" fill="#2C2C2C"/>
<circle cx="94.5" cy="25" r="4" transform="rotate(-90 94.5 25)" fill="#2C2C2C"/>
<circle cx="94.5" cy="665" r="4" transform="rotate(-90 94.5 665)" fill="#2C2C2C"/>
<circle cx="94.5" cy="249" r="4" transform="rotate(-90 94.5 249)" fill="#2C2C2C"/>
<circle cx="94.5" cy="889" r="4" transform="rotate(-90 94.5 889)" fill="#2C2C2C"/>
<circle cx="94.5" cy="569" r="4" transform="rotate(-90 94.5 569)" fill="#2C2C2C"/>
<circle cx="62.5" cy="345" r="4" transform="rotate(-90 62.5 345)" fill="#2C2C2C"/>
<circle cx="62.5" cy="985" r="4" transform="rotate(-90 62.5 985)" fill="#2C2C2C"/>
<circle cx="62.5" cy="25" r="4" transform="rotate(-90 62.5 25)" fill="#2C2C2C"/>
<circle cx="62.5" cy="665" r="4" transform="rotate(-90 62.5 665)" fill="#2C2C2C"/>
<circle cx="62.5" cy="249" r="4" transform="rotate(-90 62.5 249)" fill="#2C2C2C"/>
<circle cx="62.5" cy="889" r="4" transform="rotate(-90 62.5 889)" fill="#2C2C2C"/>
<circle cx="62.5" cy="569" r="4" transform="rotate(-90 62.5 569)" fill="#2C2C2C"/>
<circle cx="-1.5" cy="345" r="4" transform="rotate(-90 -1.5 345)" fill="#2C2C2C"/>
<circle cx="-1.5" cy="985" r="4" transform="rotate(-90 -1.5 985)" fill="#2C2C2C"/>
<circle cx="-1.5" cy="25" r="4" transform="rotate(-90 -1.5 25)" fill="#2C2C2C"/>
<circle cx="-1.5" cy="665" r="4" transform="rotate(-90 -1.5 665)" fill="#2C2C2C"/>
<circle cx="-1.5" cy="249" r="4" transform="rotate(-90 -1.5 249)" fill="#2C2C2C"/>
<circle cx="-1.5" cy="889" r="4" transform="rotate(-90 -1.5 889)" fill="#2C2C2C"/>
<circle cx="-1.5" cy="569" r="4" transform="rotate(-90 -1.5 569)" fill="#2C2C2C"/>
<circle cx="126.5" cy="345" r="4" transform="rotate(-90 126.5 345)" fill="#2C2C2C"/>
<circle cx="126.5" cy="985" r="4" transform="rotate(-90 126.5 985)" fill="#2C2C2C"/>
<circle cx="126.5" cy="25" r="4" transform="rotate(-90 126.5 25)" fill="#2C2C2C"/>
<circle cx="126.5" cy="665" r="4" transform="rotate(-90 126.5 665)" fill="#2C2C2C"/>
<circle cx="126.5" cy="249" r="4" transform="rotate(-90 126.5 249)" fill="#2C2C2C"/>
<circle cx="126.5" cy="889" r="4" transform="rotate(-90 126.5 889)" fill="#2C2C2C"/>
<circle cx="126.5" cy="569" r="4" transform="rotate(-90 126.5 569)" fill="#2C2C2C"/>
<circle cx="158.5" cy="377" r="4" transform="rotate(-90 158.5 377)" fill="#2C2C2C"/>
<circle cx="158.5" cy="1017" r="4" transform="rotate(-90 158.5 1017)" fill="#2C2C2C"/>
<circle cx="158.5" cy="57" r="4" transform="rotate(-90 158.5 57)" fill="#2C2C2C"/>
<circle cx="158.5" cy="697" r="4" transform="rotate(-90 158.5 697)" fill="#2C2C2C"/>
<circle cx="30.5" cy="377" r="4" transform="rotate(-90 30.5 377)" fill="#2C2C2C"/>
<circle cx="30.5" cy="1017" r="4" transform="rotate(-90 30.5 1017)" fill="#2C2C2C"/>
<circle cx="30.5" cy="57" r="4" transform="rotate(-90 30.5 57)" fill="#2C2C2C"/>
<circle cx="30.5" cy="697" r="4" transform="rotate(-90 30.5 697)" fill="#2C2C2C"/>
<circle cx="62.5" cy="377" r="4" transform="rotate(-90 62.5 377)" fill="#2C2C2C"/>
<circle cx="62.5" cy="1017" r="4" transform="rotate(-90 62.5 1017)" fill="#2C2C2C"/>
<circle cx="62.5" cy="57" r="4" transform="rotate(-90 62.5 57)" fill="#2C2C2C"/>
<circle cx="62.5" cy="697" r="4" transform="rotate(-90 62.5 697)" fill="#2C2C2C"/>
<circle cx="94.5" cy="377" r="4" transform="rotate(-90 94.5 377)" fill="#2C2C2C"/>
<circle cx="94.5" cy="1017" r="4" transform="rotate(-90 94.5 1017)" fill="#2C2C2C"/>
<circle cx="94.5" cy="57" r="4" transform="rotate(-90 94.5 57)" fill="#2C2C2C"/>
<circle cx="94.5" cy="697" r="4" transform="rotate(-90 94.5 697)" fill="#2C2C2C"/>
<circle cx="-1.5" cy="377" r="4" transform="rotate(-90 -1.5 377)" fill="#2C2C2C"/>
<circle cx="-1.5" cy="1017" r="4" transform="rotate(-90 -1.5 1017)" fill="#2C2C2C"/>
<circle cx="-1.5" cy="57" r="4" transform="rotate(-90 -1.5 57)" fill="#2C2C2C"/>
<circle cx="-1.5" cy="697" r="4" transform="rotate(-90 -1.5 697)" fill="#2C2C2C"/>
<circle cx="126.5" cy="377" r="4" transform="rotate(-90 126.5 377)" fill="#2C2C2C"/>
<circle cx="126.5" cy="1017" r="4" transform="rotate(-90 126.5 1017)" fill="#2C2C2C"/>
<circle cx="126.5" cy="57" r="4" transform="rotate(-90 126.5 57)" fill="#2C2C2C"/>
<circle cx="126.5" cy="697" r="4" transform="rotate(-90 126.5 697)" fill="#2C2C2C"/>
<circle cx="158.5" cy="313" r="4" transform="rotate(-90 158.5 313)" fill="#2C2C2C"/>
<circle cx="158.5" cy="953" r="4" transform="rotate(-90 158.5 953)" fill="#2C2C2C"/>
<circle cx="158.5" cy="633" r="4" transform="rotate(-90 158.5 633)" fill="#2C2C2C"/>
<circle cx="158.5" cy="217" r="4" transform="rotate(-90 158.5 217)" fill="#2C2C2C"/>
<circle cx="158.5" cy="857" r="4" transform="rotate(-90 158.5 857)" fill="#2C2C2C"/>
<circle cx="158.5" cy="537" r="4" transform="rotate(-90 158.5 537)" fill="#2C2C2C"/>
<circle cx="158.5" cy="153" r="4" transform="rotate(-90 158.5 153)" fill="#2C2C2C"/>
<circle cx="158.5" cy="793" r="4" transform="rotate(-90 158.5 793)" fill="#2C2C2C"/>
<circle cx="158.5" cy="473" r="4" transform="rotate(-90 158.5 473)" fill="#2C2C2C"/>
<circle cx="158.5" cy="281" r="4" transform="rotate(-90 158.5 281)" fill="#2C2C2C"/>
<circle cx="158.5" cy="921" r="4" transform="rotate(-90 158.5 921)" fill="#2C2C2C"/>
<circle cx="158.5" cy="601" r="4" transform="rotate(-90 158.5 601)" fill="#2C2C2C"/>
<circle cx="158.5" cy="185" r="4" transform="rotate(-90 158.5 185)" fill="#2C2C2C"/>
<circle cx="158.5" cy="825" r="4" transform="rotate(-90 158.5 825)" fill="#2C2C2C"/>
<circle cx="158.5" cy="505" r="4" transform="rotate(-90 158.5 505)" fill="#2C2C2C"/>
<circle cx="158.5" cy="121" r="4" transform="rotate(-90 158.5 121)" fill="#2C2C2C"/>
<circle cx="158.5" cy="761" r="4" transform="rotate(-90 158.5 761)" fill="#2C2C2C"/>
<circle cx="158.5" cy="441" r="4" transform="rotate(-90 158.5 441)" fill="#2C2C2C"/>
<circle cx="62.5" cy="313" r="4" transform="rotate(-90 62.5 313)" fill="#2C2C2C"/>
<circle cx="62.5" cy="953" r="4" transform="rotate(-90 62.5 953)" fill="#2C2C2C"/>
<circle cx="62.5" cy="633" r="4" transform="rotate(-90 62.5 633)" fill="#2C2C2C"/>
<circle cx="62.5" cy="217" r="4" transform="rotate(-90 62.5 217)" fill="#2C2C2C"/>
<circle cx="62.5" cy="857" r="4" transform="rotate(-90 62.5 857)" fill="#2C2C2C"/>
<circle cx="62.5" cy="537" r="4" transform="rotate(-90 62.5 537)" fill="#2C2C2C"/>
<circle cx="62.5" cy="153" r="4" transform="rotate(-90 62.5 153)" fill="#2C2C2C"/>
<circle cx="62.5" cy="793" r="4" transform="rotate(-90 62.5 793)" fill="#2C2C2C"/>
<circle cx="62.5" cy="473" r="4" transform="rotate(-90 62.5 473)" fill="#2C2C2C"/>
<circle cx="62.5" cy="281" r="4" transform="rotate(-90 62.5 281)" fill="#2C2C2C"/>
<circle cx="62.5" cy="921" r="4" transform="rotate(-90 62.5 921)" fill="#2C2C2C"/>
<circle cx="62.5" cy="601" r="4" transform="rotate(-90 62.5 601)" fill="#2C2C2C"/>
<circle cx="62.5" cy="185" r="4" transform="rotate(-90 62.5 185)" fill="#2C2C2C"/>
<circle cx="62.5" cy="825" r="4" transform="rotate(-90 62.5 825)" fill="#2C2C2C"/>
<circle cx="62.5" cy="505" r="4" transform="rotate(-90 62.5 505)" fill="#2C2C2C"/>
<circle cx="62.5" cy="121" r="4" transform="rotate(-90 62.5 121)" fill="#2C2C2C"/>
<circle cx="62.5" cy="761" r="4" transform="rotate(-90 62.5 761)" fill="#2C2C2C"/>
<circle cx="62.5" cy="441" r="4" transform="rotate(-90 62.5 441)" fill="#2C2C2C"/>
<circle cx="94.5" cy="313" r="4" transform="rotate(-90 94.5 313)" fill="#2C2C2C"/>
<circle cx="94.5" cy="953" r="4" transform="rotate(-90 94.5 953)" fill="#2C2C2C"/>
<circle cx="94.5" cy="633" r="4" transform="rotate(-90 94.5 633)" fill="#2C2C2C"/>
<circle cx="94.5" cy="217" r="4" transform="rotate(-90 94.5 217)" fill="#2C2C2C"/>
<circle cx="94.5" cy="857" r="4" transform="rotate(-90 94.5 857)" fill="#2C2C2C"/>
<circle cx="94.5" cy="537" r="4" transform="rotate(-90 94.5 537)" fill="#2C2C2C"/>
<circle cx="94.5" cy="153" r="4" transform="rotate(-90 94.5 153)" fill="#2C2C2C"/>
<circle cx="94.5" cy="793" r="4" transform="rotate(-90 94.5 793)" fill="#2C2C2C"/>
<circle cx="94.5" cy="473" r="4" transform="rotate(-90 94.5 473)" fill="#2C2C2C"/>
<circle cx="94.5" cy="281" r="4" transform="rotate(-90 94.5 281)" fill="#2C2C2C"/>
<circle cx="94.5" cy="921" r="4" transform="rotate(-90 94.5 921)" fill="#2C2C2C"/>
<circle cx="94.5" cy="601" r="4" transform="rotate(-90 94.5 601)" fill="#2C2C2C"/>
<circle cx="94.5" cy="185" r="4" transform="rotate(-90 94.5 185)" fill="#2C2C2C"/>
<circle cx="94.5" cy="825" r="4" transform="rotate(-90 94.5 825)" fill="#2C2C2C"/>
<circle cx="94.5" cy="505" r="4" transform="rotate(-90 94.5 505)" fill="#2C2C2C"/>
<circle cx="94.5" cy="121" r="4" transform="rotate(-90 94.5 121)" fill="#2C2C2C"/>
<circle cx="94.5" cy="761" r="4" transform="rotate(-90 94.5 761)" fill="#2C2C2C"/>
<circle cx="94.5" cy="441" r="4" transform="rotate(-90 94.5 441)" fill="#2C2C2C"/>
<circle cx="30.5" cy="313" r="4" transform="rotate(-90 30.5 313)" fill="#2C2C2C"/>
<circle cx="30.5" cy="953" r="4" transform="rotate(-90 30.5 953)" fill="#2C2C2C"/>
<circle cx="30.5" cy="633" r="4" transform="rotate(-90 30.5 633)" fill="#2C2C2C"/>
<circle cx="30.5" cy="217" r="4" transform="rotate(-90 30.5 217)" fill="#2C2C2C"/>
<circle cx="30.5" cy="857" r="4" transform="rotate(-90 30.5 857)" fill="#2C2C2C"/>
<circle cx="30.5" cy="537" r="4" transform="rotate(-90 30.5 537)" fill="#2C2C2C"/>
<circle cx="30.5" cy="153" r="4" transform="rotate(-90 30.5 153)" fill="#2C2C2C"/>
<circle cx="30.5" cy="793" r="4" transform="rotate(-90 30.5 793)" fill="#2C2C2C"/>
<circle cx="30.5" cy="473" r="4" transform="rotate(-90 30.5 473)" fill="#2C2C2C"/>
<circle cx="30.5" cy="281" r="4" transform="rotate(-90 30.5 281)" fill="#2C2C2C"/>
<circle cx="30.5" cy="921" r="4" transform="rotate(-90 30.5 921)" fill="#2C2C2C"/>
<circle cx="30.5" cy="601" r="4" transform="rotate(-90 30.5 601)" fill="#2C2C2C"/>
<circle cx="30.5" cy="185" r="4" transform="rotate(-90 30.5 185)" fill="#2C2C2C"/>
<circle cx="30.5" cy="825" r="4" transform="rotate(-90 30.5 825)" fill="#2C2C2C"/>
<circle cx="30.5" cy="505" r="4" transform="rotate(-90 30.5 505)" fill="#2C2C2C"/>
<circle cx="30.5" cy="121" r="4" transform="rotate(-90 30.5 121)" fill="#2C2C2C"/>
<circle cx="30.5" cy="761" r="4" transform="rotate(-90 30.5 761)" fill="#2C2C2C"/>
<circle cx="30.5" cy="441" r="4" transform="rotate(-90 30.5 441)" fill="#2C2C2C"/>
<circle cx="-1.5" cy="313" r="4" transform="rotate(-90 -1.5 313)" fill="#2C2C2C"/>
<circle cx="-1.5" cy="953" r="4" transform="rotate(-90 -1.5 953)" fill="#2C2C2C"/>
<circle cx="-1.5" cy="633" r="4" transform="rotate(-90 -1.5 633)" fill="#2C2C2C"/>
<circle cx="-1.5" cy="217" r="4" transform="rotate(-90 -1.5 217)" fill="#2C2C2C"/>
<circle cx="-1.5" cy="857" r="4" transform="rotate(-90 -1.5 857)" fill="#2C2C2C"/>
<circle cx="-1.5" cy="537" r="4" transform="rotate(-90 -1.5 537)" fill="#2C2C2C"/>
<circle cx="-1.5" cy="153" r="4" transform="rotate(-90 -1.5 153)" fill="#2C2C2C"/>
<circle cx="-1.5" cy="793" r="4" transform="rotate(-90 -1.5 793)" fill="#2C2C2C"/>
<circle cx="-1.5" cy="473" r="4" transform="rotate(-90 -1.5 473)" fill="#2C2C2C"/>
<circle cx="126.5" cy="313" r="4" transform="rotate(-90 126.5 313)" fill="#2C2C2C"/>
<circle cx="126.5" cy="953" r="4" transform="rotate(-90 126.5 953)" fill="#2C2C2C"/>
<circle cx="126.5" cy="633" r="4" transform="rotate(-90 126.5 633)" fill="#2C2C2C"/>
<circle cx="126.5" cy="217" r="4" transform="rotate(-90 126.5 217)" fill="#2C2C2C"/>
<circle cx="126.5" cy="857" r="4" transform="rotate(-90 126.5 857)" fill="#2C2C2C"/>
<circle cx="126.5" cy="537" r="4" transform="rotate(-90 126.5 537)" fill="#2C2C2C"/>
<circle cx="126.5" cy="153" r="4" transform="rotate(-90 126.5 153)" fill="#2C2C2C"/>
<circle cx="126.5" cy="793" r="4" transform="rotate(-90 126.5 793)" fill="#2C2C2C"/>
<circle cx="126.5" cy="473" r="4" transform="rotate(-90 126.5 473)" fill="#2C2C2C"/>
<circle cx="-1.5" cy="281" r="4" transform="rotate(-90 -1.5 281)" fill="#2C2C2C"/>
<circle cx="-1.5" cy="921" r="4" transform="rotate(-90 -1.5 921)" fill="#2C2C2C"/>
<circle cx="-1.5" cy="601" r="4" transform="rotate(-90 -1.5 601)" fill="#2C2C2C"/>
<circle cx="-1.5" cy="185" r="4" transform="rotate(-90 -1.5 185)" fill="#2C2C2C"/>
<circle cx="-1.5" cy="825" r="4" transform="rotate(-90 -1.5 825)" fill="#2C2C2C"/>
<circle cx="-1.5" cy="505" r="4" transform="rotate(-90 -1.5 505)" fill="#2C2C2C"/>
<circle cx="-1.5" cy="121" r="4" transform="rotate(-90 -1.5 121)" fill="#2C2C2C"/>
<circle cx="-1.5" cy="761" r="4" transform="rotate(-90 -1.5 761)" fill="#2C2C2C"/>
<circle cx="-1.5" cy="441" r="4" transform="rotate(-90 -1.5 441)" fill="#2C2C2C"/>
<circle cx="126.5" cy="281" r="4" transform="rotate(-90 126.5 281)" fill="#2C2C2C"/>
<circle cx="126.5" cy="921" r="4" transform="rotate(-90 126.5 921)" fill="#2C2C2C"/>
<circle cx="126.5" cy="601" r="4" transform="rotate(-90 126.5 601)" fill="#2C2C2C"/>
<circle cx="126.5" cy="185" r="4" transform="rotate(-90 126.5 185)" fill="#2C2C2C"/>
<circle cx="126.5" cy="825" r="4" transform="rotate(-90 126.5 825)" fill="#2C2C2C"/>
<circle cx="126.5" cy="505" r="4" transform="rotate(-90 126.5 505)" fill="#2C2C2C"/>
<circle cx="126.5" cy="121" r="4" transform="rotate(-90 126.5 121)" fill="#2C2C2C"/>
<circle cx="126.5" cy="761" r="4" transform="rotate(-90 126.5 761)" fill="#2C2C2C"/>
<circle cx="126.5" cy="441" r="4" transform="rotate(-90 126.5 441)" fill="#2C2C2C"/>
</g>
</svg>
