<svg width="46" height="75" viewBox="0 0 46 75" fill="none" xmlns="http://www.w3.org/2000/svg">
<rect x="10" y="17" width="36" height="58" rx="6" fill="#2C2C2C"/>
<path d="M44 20.998V14.998H38" stroke="#2E70D2" stroke-width="2.5" stroke-linecap="round" stroke-linejoin="round"/>
<path d="M24 2.99805V8.99805H30" stroke="#2E70D2" stroke-width="2.5" stroke-linecap="round" stroke-linejoin="round"/>
<path d="M42.5002 15.998L39.36 19.358C38.2852 20.4333 36.9556 21.2188 35.4952 21.6413C34.0347 22.0637 32.4911 22.1093 31.0083 21.7738C29.5255 21.4383 28.1518 20.7326 27.0155 19.7226C25.8791 18.7126 25.0172 17.4313 24.51 15.998" stroke="#2E70D2" stroke-width="2.5" stroke-linecap="round" stroke-linejoin="round"/>
<path d="M42.49 7.99763C41.9828 6.56442 41.1209 5.28304 39.9845 4.27305C38.8482 3.26307 37.4745 2.5574 35.9917 2.22189C34.5089 1.88639 32.9652 1.93198 31.5048 2.35441C30.0444 2.77684 28.7147 3.56235 27.64 4.63763L25 7.99763" stroke="#2E70D2" stroke-width="2.5" stroke-linecap="round" stroke-linejoin="round"/>
<path d="M17 8.5C17.8284 8.5 18.5 7.82843 18.5 7C18.5 6.17157 17.8284 5.5 17 5.5V8.5ZM39.5 29.5C39.5 28.6716 38.8284 28 38 28C37.1716 28 36.5 28.6716 36.5 29.5H39.5ZM32 62.5H8V65.5H32V62.5ZM3.5 58V13H0.5V58H3.5ZM8 8.5H17V5.5H8V8.5ZM36.5 29.5V58H39.5V29.5H36.5ZM8 62.5C5.51472 62.5 3.5 60.4853 3.5 58H0.5C0.5 62.1421 3.85787 65.5 8 65.5V62.5ZM32 65.5C36.1421 65.5 39.5 62.1421 39.5 58H36.5C36.5 60.4853 34.4853 62.5 32 62.5V65.5ZM3.5 13C3.5 10.5147 5.51472 8.5 8 8.5V5.5C3.85786 5.5 0.5 8.85787 0.5 13H3.5Z" fill="white"/>
<rect x="8" y="53" width="5" height="5" rx="1" fill="#61CEF7"/>
<rect x="17" y="53" width="5" height="5" rx="1" fill="#61CEF7"/>
<rect x="26" y="53" width="5" height="5" rx="1" fill="#2E70D2"/>
</svg>
