<svg width="36" height="36" viewBox="0 0 36 36" fill="none" xmlns="http://www.w3.org/2000/svg">
<rect width="36" height="36" rx="2" fill="#353738"/>
<path fill-rule="evenodd" clip-rule="evenodd" d="M18 10.6204C20.4031 10.6204 20.6877 10.6295 21.6368 10.6728C22.5142 10.7129 22.9908 10.8595 23.308 10.9827C23.728 11.146 24.0279 11.341 24.3428 11.656C24.6577 11.9709 24.8528 12.2707 25.016 12.6908C25.1392 13.008 25.2859 13.4845 25.3259 14.362C25.3692 15.311 25.3784 15.5956 25.3784 17.9987C25.3784 20.4019 25.3692 20.6865 25.3259 21.6355C25.2859 22.513 25.1392 22.9895 25.016 23.3067C24.8528 23.7268 24.6577 24.0266 24.3428 24.3415C24.0279 24.6565 23.728 24.8515 23.308 25.0147C22.9908 25.138 22.5142 25.2846 21.6368 25.3247C20.6879 25.368 20.4033 25.3771 18 25.3771C15.5967 25.3771 15.3121 25.368 14.3632 25.3247C13.4857 25.2846 13.0092 25.138 12.6921 25.0147C12.272 24.8515 11.9721 24.6565 11.6572 24.3415C11.3423 24.0266 11.1472 23.7268 10.984 23.3067C10.8607 22.9895 10.7141 22.513 10.6741 21.6355C10.6308 20.6865 10.6216 20.4019 10.6216 17.9987C10.6216 15.5956 10.6308 15.311 10.6741 14.362C10.7141 13.4845 10.8607 13.008 10.984 12.6908C11.1472 12.2707 11.3423 11.9709 11.6572 11.656C11.9721 11.341 12.272 11.146 12.6921 10.9827C13.0092 10.8595 13.4857 10.7129 14.3632 10.6728C15.3123 10.6295 15.5969 10.6204 18 10.6204ZM18 9C15.5557 9 15.2493 9.01036 14.2893 9.05416C13.3313 9.09789 12.6771 9.25001 12.1046 9.47251C11.5128 9.70251 11.0109 10.0102 10.5105 10.5106C10.0102 11.0109 9.70247 11.5128 9.47247 12.1047C9.24997 12.6772 9.09785 13.3314 9.05412 14.2893C9.01032 15.2493 9 15.5557 9 18C9 20.4443 9.01032 20.7508 9.05412 21.7107C9.09785 22.6687 9.24997 23.3229 9.47247 23.8954C9.70247 24.4872 10.0102 24.9891 10.5105 25.4895C11.0109 25.9898 11.5128 26.2975 12.1046 26.5275C12.6771 26.75 13.3313 26.9021 14.2893 26.9459C15.2493 26.9897 15.5557 27 18 27C20.4443 27 20.7507 26.9897 21.7107 26.9459C22.6686 26.9021 23.3228 26.75 23.8953 26.5275C24.4872 26.2975 24.9891 25.9898 25.4894 25.4895C25.9898 24.9891 26.2975 24.4872 26.5275 23.8954C26.75 23.3229 26.9021 22.6687 26.9458 21.7107C26.9896 20.7508 27 20.4443 27 18C27 15.5557 26.9896 15.2493 26.9458 14.2893C26.9021 13.3314 26.75 12.6772 26.5275 12.1047C26.2975 11.5128 25.9898 11.0109 25.4894 10.5106C24.9891 10.0102 24.4872 9.70251 23.8953 9.47251C23.3228 9.25001 22.6686 9.09789 21.7107 9.05416C20.7507 9.01036 20.4443 9 18 9ZM18.0178 13.3913C15.4635 13.3913 13.3928 15.462 13.3928 18.0163C13.3928 20.5706 15.4635 22.6413 18.0178 22.6413C20.5721 22.6413 22.6428 20.5706 22.6428 18.0163C22.6428 15.462 20.5721 13.3913 18.0178 13.3913ZM18.0179 21.0193C16.3598 21.0193 15.0157 19.6752 15.0157 18.0171C15.0157 16.3591 16.3598 15.0149 18.0179 15.0149C19.6759 15.0149 21.0201 16.3591 21.0201 18.0171C21.0201 19.6752 19.6759 21.0193 18.0179 21.0193ZM23.8571 13.1779C23.8571 13.7697 23.3775 14.2494 22.7857 14.2494C22.194 14.2494 21.7143 13.7697 21.7143 13.1779C21.7143 12.5862 22.194 12.1065 22.7857 12.1065C23.3775 12.1065 23.8571 12.5862 23.8571 13.1779Z" fill="white"/>
</svg>
