<svg width="16" height="16" viewBox="0 0 16 16" fill="none" xmlns="http://www.w3.org/2000/svg">
<path fill-rule="evenodd" clip-rule="evenodd" d="M0.403906 5.13047H3.52244V15.999H0.403906V5.13047ZM1.88335 3.77103H1.86077C0.731891 3.77103 0 2.9402 0 1.88808C0 0.814445 0.753528 0 1.90499 0C3.0555 0 3.76293 0.812396 3.78551 1.885C3.78551 2.93712 3.0555 3.77103 1.88335 3.77103ZM15.9996 15.9998H12.4634V10.3745C12.4634 8.90233 11.9103 7.89836 10.6939 7.89836C9.7635 7.89836 9.2461 8.57553 9.00527 9.23016C8.91496 9.46374 8.92907 9.79054 8.92907 10.1184V15.9998H5.42578C5.42578 15.9998 5.47094 6.0359 5.42578 5.13028H8.92907V6.836C9.13603 6.09019 10.2555 5.02578 12.042 5.02578C14.2583 5.02578 15.9996 6.59013 15.9996 9.95548V15.9998Z" fill="white"/>
</svg>
