<svg width="34" height="55" viewBox="0 0 34 55" fill="none" xmlns="http://www.w3.org/2000/svg">
<path fill-rule="evenodd" clip-rule="evenodd" d="M7.00472 24.5459L26.5408 24.5459L33.5455 31.3705L33.5455 47.1556L26.5408 54.0013H7.00472L0 47.1556L0 31.3705L7.00472 24.5459ZM9.6948 30.2728L24.6519 30.2728L28.6365 33.993L28.6365 44.5878L24.6519 48.2729H9.6948L5.72729 44.5878L5.72729 33.9333L9.6948 30.2728Z" fill="white"/>
<path d="M8.82175 20.4546H3.27271L3.27271 5.61255L9.07225 0L24.4732 0L30.2728 5.61255L30.2728 20.4546H24.7237L24.7237 5.20425L8.82175 5.20425L8.82175 20.4546Z" fill="white"/>
<rect x="15.1396" y="34.7598" width="4.09092" height="9.00003" fill="#61CEF7"/>
</svg>
