<svg width="375" height="812" viewBox="0 0 375 812" fill="none" xmlns="http://www.w3.org/2000/svg">
<path fill-rule="evenodd" clip-rule="evenodd" d="M289.113 602.236L891.474 602.236L1107.45 817.382L1107.45 1315L891.474 1530.81H289.113L73.1348 1315L73.1348 817.382L289.113 602.236ZM368.679 778.198L811.403 778.198L929.343 897.057L929.343 1235.56L811.403 1353.3H368.679L251.243 1235.56L251.243 895.149L368.679 778.198Z" fill="#171717"/>
<path d="M891.474 602.236L954.99 538.474L928.651 512.236H891.474V602.236ZM289.113 602.236V512.236H251.935L225.596 538.474L289.113 602.236ZM1107.45 817.382H1197.45V780.001L1170.97 753.62L1107.45 817.382ZM1107.45 1315L1171.07 1378.67L1197.45 1352.3V1315L1107.45 1315ZM891.474 1530.81V1620.81H928.732L955.089 1594.48L891.474 1530.81ZM289.113 1530.81L225.498 1594.48L251.854 1620.81H289.113L289.113 1530.81ZM73.1348 1315H-16.8652V1352.3L9.51996 1378.67L73.1348 1315ZM73.1348 817.382L9.61813 753.62L-16.8652 780.001V817.382H73.1348ZM811.403 778.198L875.289 714.806L848.887 688.198H811.403V778.198ZM368.679 778.198V688.198H331.509L305.172 714.427L368.679 778.198ZM929.343 897.057L1019.34 897.057V859.982L993.229 833.665L929.343 897.057ZM929.343 1235.56L992.928 1299.25L1019.34 1272.88V1235.56H929.343ZM811.403 1353.3V1443.3H848.637L874.988 1416.99L811.403 1353.3ZM368.679 1353.3L304.958 1416.85L331.333 1443.3H368.679V1353.3ZM251.243 1235.56H161.243V1272.77L187.522 1299.11L251.243 1235.56ZM251.243 895.149L187.735 831.377L161.243 857.76V895.149H251.243ZM891.474 512.236L289.113 512.236V692.236L891.474 692.236V512.236ZM1170.97 753.62L954.99 538.474L827.957 665.999L1043.94 881.145L1170.97 753.62ZM1197.45 1315L1197.45 817.382L1017.45 817.382L1017.45 1315L1197.45 1315ZM955.089 1594.48L1171.07 1378.67L1043.84 1251.34L827.859 1467.15L955.089 1594.48ZM289.113 1620.81H891.474V1440.81H289.113L289.113 1620.81ZM9.51996 1378.67L225.498 1594.48L352.728 1467.15L136.75 1251.34L9.51996 1378.67ZM-16.8652 817.382L-16.8652 1315H163.135L163.135 817.382H-16.8652ZM225.596 538.474L9.61813 753.62L136.651 881.145L352.63 665.999L225.596 538.474ZM811.403 688.198L368.679 688.198L368.679 868.198L811.403 868.198V688.198ZM993.229 833.665L875.289 714.806L747.517 841.59L865.457 960.449L993.229 833.665ZM1019.34 1235.56L1019.34 897.057L839.343 897.057L839.343 1235.56H1019.34ZM874.988 1416.99L992.928 1299.25L865.758 1171.86L747.818 1289.6L874.988 1416.99ZM368.679 1443.3H811.403V1263.3H368.679V1443.3ZM187.522 1299.11L304.958 1416.85L432.401 1289.74L314.964 1172L187.522 1299.11ZM161.243 895.149L161.243 1235.56H341.243L341.243 895.149H161.243ZM305.172 714.427L187.735 831.377L314.751 958.92L432.187 841.969L305.172 714.427Z" fill="#171717"/>
<path d="M496.525 357.19L318.416 357.19L318.416 16.1906L447.476 -112.759L790.203 -112.759L919.264 16.1906L919.264 357.19L741.155 357.19V63.2039L496.525 63.2039L496.525 357.19Z" fill="#171717" stroke="#171717" stroke-width="180"/>
<g opacity="0.8">
<mask id="mask0" mask-type="alpha" maskUnits="userSpaceOnUse" x="-473" y="549" width="767" height="269">
<path d="M-472.176 549.715L-472.176 817.514L293.975 817.514L25.705 549.715L-472.176 549.715Z" fill="#C4C4C4"/>
</mask>
<g mask="url(#mask0)">
<circle r="3.77182" transform="matrix(1.31134e-07 -1 -1 -1.31134e-07 -3.05307 623.266)" fill="#2C2C2C"/>
<circle r="3.77182" transform="matrix(1.31134e-07 -1 -1 -1.31134e-07 177.998 623.266)" fill="#2C2C2C"/>
<circle r="3.77182" transform="matrix(1.31134e-07 -1 -1 -1.31134e-07 27.1227 623.266)" fill="#2C2C2C"/>
<circle r="3.77182" transform="matrix(1.31134e-07 -1 -1 -1.31134e-07 57.2985 623.266)" fill="#2C2C2C"/>
<circle r="3.77182" transform="matrix(1.31134e-07 -1 -1 -1.31134e-07 268.517 623.266)" fill="#2C2C2C"/>
<circle r="3.77182" transform="matrix(1.31134e-07 -1 -1 -1.31134e-07 147.818 623.266)" fill="#2C2C2C"/>
<circle r="3.77182" transform="matrix(1.31134e-07 -1 -1 -1.31134e-07 238.341 623.266)" fill="#2C2C2C"/>
<circle r="3.77182" transform="matrix(1.31134e-07 -1 -1 -1.31134e-07 117.642 623.266)" fill="#2C2C2C"/>
<circle r="3.77182" transform="matrix(1.31134e-07 -1 -1 -1.31134e-07 208.166 623.266)" fill="#2C2C2C"/>
<circle r="3.77182" transform="matrix(1.31134e-07 -1 -1 -1.31134e-07 87.4665 623.266)" fill="#2C2C2C"/>
<circle r="3.77182" transform="matrix(1.31134e-07 -1 -1 -1.31134e-07 57.2985 562.917)" fill="#2C2C2C"/>
<circle r="3.77182" transform="matrix(1.31134e-07 -1 -1 -1.31134e-07 57.2985 774.139)" fill="#2C2C2C"/>
<circle r="3.77182" transform="matrix(1.31134e-07 -1 -1 -1.31134e-07 27.1227 562.917)" fill="#2C2C2C"/>
<circle r="3.77182" transform="matrix(1.31134e-07 -1 -1 -1.31134e-07 27.1227 774.139)" fill="#2C2C2C"/>
<circle r="3.77182" transform="matrix(1.31134e-07 -1 -1 -1.31134e-07 -3.05307 562.917)" fill="#2C2C2C"/>
<circle r="3.77182" transform="matrix(1.31134e-07 -1 -1 -1.31134e-07 -3.05307 774.139)" fill="#2C2C2C"/>
<circle r="3.77182" transform="matrix(1.31134e-07 -1 -1 -1.31134e-07 177.998 562.917)" fill="#2C2C2C"/>
<circle r="3.77182" transform="matrix(1.31134e-07 -1 -1 -1.31134e-07 177.998 774.139)" fill="#2C2C2C"/>
<circle r="3.77182" transform="matrix(1.31134e-07 -1 -1 -1.31134e-07 238.341 562.918)" fill="#2C2C2C"/>
<circle r="3.77182" transform="matrix(1.31134e-07 -1 -1 -1.31134e-07 238.341 774.139)" fill="#2C2C2C"/>
<circle r="3.77182" transform="matrix(1.31134e-07 -1 -1 -1.31134e-07 117.642 562.917)" fill="#2C2C2C"/>
<circle r="3.77182" transform="matrix(1.31134e-07 -1 -1 -1.31134e-07 117.642 774.139)" fill="#2C2C2C"/>
<circle r="3.77182" transform="matrix(1.31134e-07 -1 -1 -1.31134e-07 268.517 562.918)" fill="#2C2C2C"/>
<circle r="3.77182" transform="matrix(1.31134e-07 -1 -1 -1.31134e-07 268.517 774.139)" fill="#2C2C2C"/>
<circle r="3.77182" transform="matrix(1.31134e-07 -1 -1 -1.31134e-07 147.818 562.917)" fill="#2C2C2C"/>
<circle r="3.77182" transform="matrix(1.31134e-07 -1 -1 -1.31134e-07 147.818 774.139)" fill="#2C2C2C"/>
<circle r="3.77182" transform="matrix(1.31134e-07 -1 -1 -1.31134e-07 208.166 562.918)" fill="#2C2C2C"/>
<circle r="3.77182" transform="matrix(1.31134e-07 -1 -1 -1.31134e-07 208.166 774.139)" fill="#2C2C2C"/>
<circle r="3.77182" transform="matrix(1.31134e-07 -1 -1 -1.31134e-07 87.4665 562.917)" fill="#2C2C2C"/>
<circle r="3.77182" transform="matrix(1.31134e-07 -1 -1 -1.31134e-07 87.4665 774.139)" fill="#2C2C2C"/>
<circle r="3.77182" transform="matrix(1.31134e-07 -1 -1 -1.31134e-07 27.1227 593.091)" fill="#2C2C2C"/>
<circle r="3.77182" transform="matrix(1.31134e-07 -1 -1 -1.31134e-07 57.2985 593.091)" fill="#2C2C2C"/>
<circle r="3.77182" transform="matrix(1.31134e-07 -1 -1 -1.31134e-07 -3.05307 593.091)" fill="#2C2C2C"/>
<circle r="3.77182" transform="matrix(1.31134e-07 -1 -1 -1.31134e-07 177.998 593.091)" fill="#2C2C2C"/>
<circle r="3.77182" transform="matrix(1.31134e-07 -1 -1 -1.31134e-07 268.517 593.091)" fill="#2C2C2C"/>
<circle r="3.77182" transform="matrix(1.31134e-07 -1 -1 -1.31134e-07 147.818 593.091)" fill="#2C2C2C"/>
<circle r="3.77182" transform="matrix(1.31134e-07 -1 -1 -1.31134e-07 238.341 593.091)" fill="#2C2C2C"/>
<circle r="3.77182" transform="matrix(1.31134e-07 -1 -1 -1.31134e-07 117.642 593.091)" fill="#2C2C2C"/>
<circle r="3.77182" transform="matrix(1.31134e-07 -1 -1 -1.31134e-07 208.166 593.091)" fill="#2C2C2C"/>
<circle r="3.77182" transform="matrix(1.31134e-07 -1 -1 -1.31134e-07 87.4665 593.091)" fill="#2C2C2C"/>
<circle r="3.77182" transform="matrix(1.31134e-07 -1 -1 -1.31134e-07 57.2985 743.965)" fill="#2C2C2C"/>
<circle r="3.77182" transform="matrix(1.31134e-07 -1 -1 -1.31134e-07 57.2985 683.616)" fill="#2C2C2C"/>
<circle r="3.77182" transform="matrix(1.31134e-07 -1 -1 -1.31134e-07 57.2985 804.314)" fill="#2C2C2C"/>
<circle r="3.77182" transform="matrix(1.31134e-07 -1 -1 -1.31134e-07 57.2985 713.79)" fill="#2C2C2C"/>
<circle r="3.77182" transform="matrix(1.31134e-07 -1 -1 -1.31134e-07 57.2985 653.441)" fill="#2C2C2C"/>
<circle r="3.77182" transform="matrix(1.31134e-07 -1 -1 -1.31134e-07 268.517 743.965)" fill="#2C2C2C"/>
<circle r="3.77182" transform="matrix(1.31134e-07 -1 -1 -1.31134e-07 268.517 683.616)" fill="#2C2C2C"/>
<circle r="3.77182" transform="matrix(1.31134e-07 -1 -1 -1.31134e-07 147.818 743.965)" fill="#2C2C2C"/>
<circle r="3.77182" transform="matrix(1.31134e-07 -1 -1 -1.31134e-07 147.818 683.616)" fill="#2C2C2C"/>
<circle r="3.77182" transform="matrix(1.31134e-07 -1 -1 -1.31134e-07 268.517 804.314)" fill="#2C2C2C"/>
<circle r="3.77182" transform="matrix(1.31134e-07 -1 -1 -1.31134e-07 268.517 713.79)" fill="#2C2C2C"/>
<circle r="3.77182" transform="matrix(1.31134e-07 -1 -1 -1.31134e-07 268.517 653.441)" fill="#2C2C2C"/>
<circle r="3.77182" transform="matrix(1.31134e-07 -1 -1 -1.31134e-07 147.818 804.314)" fill="#2C2C2C"/>
<circle r="3.77182" transform="matrix(1.31134e-07 -1 -1 -1.31134e-07 147.818 713.79)" fill="#2C2C2C"/>
<circle r="3.77182" transform="matrix(1.31134e-07 -1 -1 -1.31134e-07 147.818 653.441)" fill="#2C2C2C"/>
<circle r="3.77182" transform="matrix(1.31134e-07 -1 -1 -1.31134e-07 27.1227 743.965)" fill="#2C2C2C"/>
<circle r="3.77182" transform="matrix(1.31134e-07 -1 -1 -1.31134e-07 27.1227 683.616)" fill="#2C2C2C"/>
<circle r="3.77182" transform="matrix(1.31134e-07 -1 -1 -1.31134e-07 27.1227 804.314)" fill="#2C2C2C"/>
<circle r="3.77182" transform="matrix(1.31134e-07 -1 -1 -1.31134e-07 27.1227 713.79)" fill="#2C2C2C"/>
<circle r="3.77182" transform="matrix(1.31134e-07 -1 -1 -1.31134e-07 27.1227 653.441)" fill="#2C2C2C"/>
<circle r="3.77182" transform="matrix(1.31134e-07 -1 -1 -1.31134e-07 238.341 743.965)" fill="#2C2C2C"/>
<circle r="3.77182" transform="matrix(1.31134e-07 -1 -1 -1.31134e-07 238.341 683.616)" fill="#2C2C2C"/>
<circle r="3.77182" transform="matrix(1.31134e-07 -1 -1 -1.31134e-07 117.642 743.965)" fill="#2C2C2C"/>
<circle r="3.77182" transform="matrix(1.31134e-07 -1 -1 -1.31134e-07 117.642 683.616)" fill="#2C2C2C"/>
<circle r="3.77182" transform="matrix(1.31134e-07 -1 -1 -1.31134e-07 238.341 804.314)" fill="#2C2C2C"/>
<circle r="3.77182" transform="matrix(1.31134e-07 -1 -1 -1.31134e-07 238.341 713.79)" fill="#2C2C2C"/>
<circle r="3.77182" transform="matrix(1.31134e-07 -1 -1 -1.31134e-07 238.341 653.441)" fill="#2C2C2C"/>
<circle r="3.77182" transform="matrix(1.31134e-07 -1 -1 -1.31134e-07 117.642 804.314)" fill="#2C2C2C"/>
<circle r="3.77182" transform="matrix(1.31134e-07 -1 -1 -1.31134e-07 117.642 713.79)" fill="#2C2C2C"/>
<circle r="3.77182" transform="matrix(1.31134e-07 -1 -1 -1.31134e-07 117.642 653.441)" fill="#2C2C2C"/>
<circle r="3.77182" transform="matrix(1.31134e-07 -1 -1 -1.31134e-07 -3.05307 743.965)" fill="#2C2C2C"/>
<circle r="3.77182" transform="matrix(1.31134e-07 -1 -1 -1.31134e-07 -3.05307 683.616)" fill="#2C2C2C"/>
<circle r="3.77182" transform="matrix(1.31134e-07 -1 -1 -1.31134e-07 177.998 743.965)" fill="#2C2C2C"/>
<circle r="3.77182" transform="matrix(1.31134e-07 -1 -1 -1.31134e-07 177.998 683.616)" fill="#2C2C2C"/>
<circle r="3.77182" transform="matrix(1.31134e-07 -1 -1 -1.31134e-07 -3.05307 804.314)" fill="#2C2C2C"/>
<circle r="3.77182" transform="matrix(1.31134e-07 -1 -1 -1.31134e-07 -3.05307 713.79)" fill="#2C2C2C"/>
<circle r="3.77182" transform="matrix(1.31134e-07 -1 -1 -1.31134e-07 -3.05307 653.441)" fill="#2C2C2C"/>
<circle r="3.77182" transform="matrix(1.31134e-07 -1 -1 -1.31134e-07 177.998 804.314)" fill="#2C2C2C"/>
<circle r="3.77182" transform="matrix(1.31134e-07 -1 -1 -1.31134e-07 177.998 713.79)" fill="#2C2C2C"/>
<circle r="3.77182" transform="matrix(1.31134e-07 -1 -1 -1.31134e-07 177.998 653.441)" fill="#2C2C2C"/>
<circle r="3.77182" transform="matrix(1.31134e-07 -1 -1 -1.31134e-07 208.166 743.965)" fill="#2C2C2C"/>
<circle r="3.77182" transform="matrix(1.31134e-07 -1 -1 -1.31134e-07 208.166 683.616)" fill="#2C2C2C"/>
<circle r="3.77182" transform="matrix(1.31134e-07 -1 -1 -1.31134e-07 87.4665 743.965)" fill="#2C2C2C"/>
<circle r="3.77182" transform="matrix(1.31134e-07 -1 -1 -1.31134e-07 87.4665 683.616)" fill="#2C2C2C"/>
<circle r="3.77182" transform="matrix(1.31134e-07 -1 -1 -1.31134e-07 208.166 804.314)" fill="#2C2C2C"/>
<circle r="3.77182" transform="matrix(1.31134e-07 -1 -1 -1.31134e-07 208.166 713.79)" fill="#2C2C2C"/>
<circle r="3.77182" transform="matrix(1.31134e-07 -1 -1 -1.31134e-07 208.166 653.441)" fill="#2C2C2C"/>
<circle r="3.77182" transform="matrix(1.31134e-07 -1 -1 -1.31134e-07 87.4665 804.314)" fill="#2C2C2C"/>
<circle r="3.77182" transform="matrix(1.31134e-07 -1 -1 -1.31134e-07 87.4665 713.79)" fill="#2C2C2C"/>
<circle r="3.77182" transform="matrix(1.31134e-07 -1 -1 -1.31134e-07 87.4665 653.441)" fill="#2C2C2C"/>
</g>
</g>
</svg>
