<svg width="16" height="13" viewBox="0 0 16 13" fill="none" xmlns="http://www.w3.org/2000/svg">
<path fill-rule="evenodd" clip-rule="evenodd" d="M14.1152 2.05525C14.7932 1.64965 15.3135 1.0065 15.5577 0.240358C14.9228 0.616857 14.2213 0.889138 13.4728 1.03654C12.8755 0.398093 12.0218 0 11.0771 0C9.26454 0 7.79574 1.46938 7.79574 3.28145C7.79574 3.53871 7.82297 3.7894 7.87932 4.02882C5.15208 3.89174 2.73381 2.58667 1.11381 0.599957C0.831132 1.08631 0.669601 1.64965 0.669601 2.25054C0.669601 3.38849 1.24905 4.39311 2.12995 4.98274C1.59183 4.96584 1.08564 4.81655 0.642367 4.57244V4.61281C0.642367 6.20331 1.77308 7.52997 3.27663 7.83042C3.00053 7.90741 2.71128 7.9459 2.41075 7.9459C2.19945 7.9459 1.99284 7.92619 1.79374 7.88769C2.21072 9.19088 3.42314 10.1411 4.86001 10.1664C3.73587 11.0471 2.3206 11.571 0.783236 11.571C0.518401 11.571 0.256383 11.5569 0 11.5259C1.45284 12.4564 3.17802 13 5.03187 13C11.0705 13 14.3706 7.99942 14.3706 3.66265C14.3706 3.51993 14.3687 3.37816 14.3622 3.23826C15.0036 2.77539 15.5614 2.19702 16 1.53886C15.4112 1.79987 14.7782 1.97638 14.1152 2.05525Z" fill="white"/>
</svg>
